<svg width="4740" height="1518" viewBox="0 0 4740 1518" fill="none" xmlns="http://www.w3.org/2000/svg">
<path d="M2247.36 416.928C2241.73 449.696 2228.93 479.648 2208.96 506.784C2189.5 533.408 2163.13 554.912 2129.85 571.296C2096.57 587.168 2057.92 595.104 2013.89 595.104H1949.46C1943.64 595.104 1938.65 599.284 1937.64 605.019L1908.88 767.973C1907.87 773.708 1902.89 777.888 1897.07 777.888H1770.15C1762.69 777.888 1757.03 771.144 1758.34 763.793L1850.08 246.353C1851.1 240.623 1856.08 236.448 1861.9 236.448H2076.86C2133.69 236.448 2176.96 249.504 2206.65 275.616C2236.35 301.216 2251.2 335.776 2251.2 379.296C2251.2 390.048 2249.92 402.592 2247.36 416.928ZM2020.8 476.064C2063.29 476.064 2087.87 456.352 2094.53 416.928C2095.55 409.76 2096.06 404.64 2096.06 401.568C2096.06 387.744 2091.45 376.992 2082.24 369.312C2073.53 361.12 2059.97 357.024 2041.53 357.024H1991.72C1985.89 357.024 1980.9 361.218 1979.9 366.965L1963.34 462.005C1962.06 469.345 1967.71 476.064 1975.17 476.064H2020.8Z" fill="white"/>
<path d="M2505.98 783.264C2460.41 783.264 2420.22 773.792 2385.4 754.848C2350.58 735.904 2323.7 709.28 2304.76 674.976C2285.82 640.672 2276.34 601.248 2276.34 556.704C2276.34 492.704 2289.66 435.872 2316.28 386.208C2343.42 336.032 2381.05 297.12 2429.18 269.472C2477.82 241.824 2533.37 228 2595.83 228C2642.42 228 2683.13 237.472 2717.94 256.416C2753.27 274.848 2780.41 301.216 2799.35 335.52C2818.3 369.312 2827.77 408.48 2827.77 453.024C2827.77 516.512 2814.2 573.344 2787.06 623.52C2759.93 673.696 2722.04 712.864 2673.4 741.024C2624.76 769.184 2568.95 783.264 2505.98 783.264ZM2529.02 643.488C2559.22 643.488 2585.59 635.552 2608.12 619.68C2631.16 603.808 2648.57 582.816 2660.34 556.704C2672.63 530.08 2678.78 501.408 2678.78 470.688C2678.78 437.92 2669.82 412.576 2651.9 394.656C2634.49 376.224 2609.4 367.008 2576.63 367.008C2546.42 367.008 2519.8 374.944 2496.76 390.816C2473.72 406.176 2456.06 426.912 2443.77 453.024C2431.48 479.136 2425.34 507.808 2425.34 539.04C2425.34 571.296 2434.3 596.896 2452.22 615.84C2470.14 634.272 2495.74 643.488 2529.02 643.488Z" fill="white"/>
<path d="M3181.9 236.448C3238.73 236.448 3282 249.248 3311.69 274.848C3341.39 299.936 3356.24 333.472 3356.24 375.456C3356.24 388.256 3355.21 399.776 3353.16 410.016C3347.02 446.88 3331.4 479.392 3306.32 507.552C3283.85 532.314 3254.81 550.71 3219.2 562.741C3212.45 565.02 3208.78 572.441 3211.42 579.051L3284.37 761.431C3287.53 769.314 3281.72 777.888 3273.23 777.888H3131.95C3126.9 777.888 3122.39 774.721 3120.67 769.968L3053.84 585.118C3052.34 580.971 3048.4 578.208 3043.99 578.208C3038.91 578.208 3034.57 581.853 3033.68 586.854L3001.64 767.979C3000.62 773.711 2995.64 777.888 2989.82 777.888H2862.9C2855.44 777.888 2849.78 771.144 2851.09 763.793L2942.83 246.353C2943.85 240.623 2948.83 236.448 2954.65 236.448H3181.9ZM3056.01 461.297C3054.77 468.619 3060.42 475.296 3067.84 475.296H3128.14C3168.08 475.296 3191.63 456.352 3198.8 418.464C3199.82 412.32 3200.33 407.968 3200.33 405.408C3200.33 391.584 3195.72 380.832 3186.51 373.152C3177.8 365.472 3164.75 361.632 3147.34 361.632H3082.99C3077.13 361.632 3072.13 365.859 3071.16 371.633L3056.01 461.297Z" fill="white"/>
<path d="M3845.8 236.448C3853.28 236.448 3858.93 243.21 3857.61 250.568L3840.42 346.376C3839.39 352.094 3834.41 356.256 3828.6 356.256H3705.09C3699.27 356.256 3694.29 360.435 3693.28 366.168L3622.28 767.976C3621.27 773.709 3616.29 777.888 3610.46 777.888H3483.54C3476.08 777.888 3470.43 771.149 3471.72 763.8L3541.24 370.344C3542.54 362.995 3536.89 356.256 3529.42 356.256H3415.23C3407.75 356.256 3402.1 349.494 3403.42 342.136L3420.61 246.328C3421.64 240.61 3426.61 236.448 3432.42 236.448H3845.8Z" fill="white"/>
<path d="M4180.08 699.712C4179.17 693.872 4174.14 689.568 4168.23 689.568H3993.88C3989.35 689.568 3985.21 692.119 3983.17 696.164L3945.28 771.292C3943.24 775.337 3939.09 777.888 3934.56 777.888H3803.87C3794.78 777.888 3788.99 768.178 3793.31 760.183L4072.95 242.743C4075.04 238.865 4079.1 236.448 4083.51 236.448H4239.96C4245.73 236.448 4250.69 240.562 4251.75 246.24L4348.63 763.68C4350.02 771.064 4344.35 777.888 4336.84 777.888H4202.59C4196.68 777.888 4191.65 773.584 4190.73 767.744L4180.08 699.712ZM4146.86 575.136C4154.21 575.136 4159.83 568.589 4158.72 561.323L4139.61 436.261C4137.84 424.723 4122.31 422.239 4117.04 432.652L4053.69 557.713C4049.64 565.696 4055.45 575.136 4064.39 575.136H4146.86Z" fill="white"/>
<path d="M4574.07 649.394C4572.79 656.735 4578.44 663.456 4585.9 663.456H4725.44C4732.93 663.456 4738.58 670.232 4737.25 677.596L4720.86 768.028C4719.83 773.737 4714.86 777.888 4709.06 777.888H4413.9C4406.44 777.888 4400.78 771.144 4402.09 763.793L4493.83 246.353C4494.85 240.623 4499.83 236.448 4505.65 236.448H4631.84C4639.29 236.448 4644.94 243.169 4643.66 250.51L4574.07 649.394Z" fill="white"/>
<path d="M1871.59 1018.67C1900.9 1018.67 1926.51 1024.34 1948.42 1035.7C1970.59 1046.78 1987.62 1062.89 1999.5 1084.01C2011.65 1104.86 2017.72 1129.28 2017.72 1157.27C2017.72 1185.25 2011.65 1209.54 1999.5 1230.13C1987.62 1250.72 1970.59 1266.56 1948.42 1277.65C1926.51 1288.48 1900.9 1293.89 1871.59 1293.89H1793.7C1787.07 1293.89 1781.7 1288.52 1781.7 1281.89V1030.67C1781.7 1024.04 1787.07 1018.67 1793.7 1018.67H1871.59ZM1871.59 1257.06C1903.8 1257.06 1928.49 1248.35 1945.65 1230.92C1962.81 1213.5 1971.39 1188.95 1971.39 1157.27C1971.39 1125.32 1962.81 1100.38 1945.65 1082.42C1928.49 1064.47 1903.8 1055.5 1871.59 1055.5H1838.85C1832.22 1055.5 1826.85 1060.87 1826.85 1067.5V1245.06C1826.85 1251.69 1832.22 1257.06 1838.85 1257.06H1871.59Z" fill="white"/>
<path d="M2187.99 1296.66C2162.38 1296.66 2138.76 1290.72 2117.11 1278.84C2095.72 1266.7 2078.7 1249.93 2066.02 1228.55C2053.62 1206.9 2047.41 1182.61 2047.41 1155.68C2047.41 1128.76 2053.62 1104.6 2066.02 1083.22C2078.7 1061.83 2095.72 1045.2 2117.11 1033.32C2138.76 1021.18 2162.38 1015.1 2187.99 1015.1C2213.86 1015.1 2237.49 1021.18 2258.88 1033.32C2280.52 1045.2 2297.55 1061.83 2309.96 1083.22C2322.37 1104.6 2328.57 1128.76 2328.57 1155.68C2328.57 1182.61 2322.37 1206.9 2309.96 1228.55C2297.55 1249.93 2280.52 1266.7 2258.88 1278.84C2237.49 1290.72 2213.86 1296.66 2187.99 1296.66ZM2187.99 1257.46C2206.21 1257.46 2222.44 1253.36 2236.7 1245.18C2250.96 1236.73 2262.04 1224.85 2269.96 1209.54C2278.15 1193.96 2282.24 1176.01 2282.24 1155.68C2282.24 1135.36 2278.15 1117.54 2269.96 1102.22C2262.04 1086.91 2250.96 1075.16 2236.7 1066.98C2222.44 1058.8 2206.21 1054.7 2187.99 1054.7C2169.78 1054.7 2153.54 1058.8 2139.28 1066.98C2125.03 1075.16 2113.81 1086.91 2105.62 1102.22C2097.7 1117.54 2093.74 1135.36 2093.74 1155.68C2093.74 1176.01 2097.7 1193.96 2105.62 1209.54C2113.81 1224.85 2125.03 1236.73 2139.28 1245.18C2153.54 1253.36 2169.78 1257.46 2187.99 1257.46Z" fill="white"/>
<path d="M2460.81 1155.68C2460.81 1128.76 2467.02 1104.6 2479.43 1083.22C2492.1 1061.83 2509.13 1045.2 2530.51 1033.32C2552.16 1021.18 2575.79 1015.1 2601.39 1015.1C2630.7 1015.1 2656.7 1022.36 2679.41 1036.88C2697.52 1048.13 2711.69 1063.15 2721.93 1081.94C2725.96 1089.36 2720.19 1097.87 2711.74 1097.87H2682.53C2677.95 1097.87 2673.84 1095.22 2671.48 1091.3C2664.74 1080.04 2656.03 1071.4 2645.35 1065.4C2632.68 1058.27 2618.03 1054.7 2601.39 1054.7C2583.18 1054.7 2566.94 1058.8 2552.69 1066.98C2538.43 1075.16 2527.21 1086.91 2519.03 1102.22C2511.11 1117.54 2507.15 1135.36 2507.15 1155.68C2507.15 1176.01 2511.11 1193.83 2519.03 1209.14C2527.21 1224.46 2538.43 1236.34 2552.69 1244.78C2566.94 1252.97 2583.18 1257.06 2601.39 1257.06C2618.03 1257.06 2632.68 1253.5 2645.35 1246.37C2656.03 1240.36 2664.74 1231.73 2671.48 1220.47C2673.84 1216.54 2677.95 1213.9 2682.53 1213.9H2711.74C2720.19 1213.9 2725.96 1222.4 2721.93 1229.82C2711.69 1248.62 2697.52 1263.64 2679.41 1274.88C2656.7 1289.14 2630.7 1296.26 2601.39 1296.26C2575.52 1296.26 2551.89 1290.32 2530.51 1278.44C2509.13 1266.3 2492.1 1249.54 2479.43 1228.15C2467.02 1206.77 2460.81 1182.61 2460.81 1155.68Z" fill="white"/>
<path d="M2907.68 1296.66C2882.07 1296.66 2858.44 1290.72 2836.79 1278.84C2815.41 1266.7 2798.38 1249.93 2785.71 1228.55C2773.3 1206.9 2767.1 1182.61 2767.1 1155.68C2767.1 1128.76 2773.3 1104.6 2785.71 1083.22C2798.38 1061.83 2815.41 1045.2 2836.79 1033.32C2858.44 1021.18 2882.07 1015.1 2907.68 1015.1C2933.55 1015.1 2957.18 1021.18 2978.56 1033.32C3000.21 1045.2 3017.24 1061.83 3029.64 1083.22C3042.05 1104.6 3048.26 1128.76 3048.26 1155.68C3048.26 1182.61 3042.05 1206.9 3029.64 1228.55C3017.24 1249.93 3000.21 1266.7 2978.56 1278.84C2957.18 1290.72 2933.55 1296.66 2907.68 1296.66ZM2907.68 1257.46C2925.89 1257.46 2942.13 1253.36 2956.38 1245.18C2970.64 1236.73 2981.73 1224.85 2989.65 1209.54C2997.83 1193.96 3001.92 1176.01 3001.92 1155.68C3001.92 1135.36 2997.83 1117.54 2989.65 1102.22C2981.73 1086.91 2970.64 1075.16 2956.38 1066.98C2942.13 1058.8 2925.89 1054.7 2907.68 1054.7C2889.46 1054.7 2873.22 1058.8 2858.97 1066.98C2844.71 1075.16 2833.49 1086.91 2825.31 1102.22C2817.39 1117.54 2813.43 1135.36 2813.43 1155.68C2813.43 1176.01 2817.39 1193.96 2825.31 1209.54C2833.49 1224.85 2844.71 1236.73 2858.97 1245.18C2873.22 1253.36 2889.46 1257.46 2907.68 1257.46Z" fill="white"/>
<path d="M3370.55 1018.67C3377.18 1018.67 3382.55 1024.04 3382.55 1030.67V1281.89C3382.55 1288.52 3377.18 1293.89 3370.55 1293.89H3349.41C3342.78 1293.89 3337.41 1288.52 3337.41 1281.89V1133.61C3337.41 1127.13 3328.56 1125.25 3325.93 1131.17L3256.62 1286.77C3254.7 1291.1 3250.4 1293.89 3245.66 1293.89H3229.95C3225.22 1293.89 3220.93 1291.11 3218.99 1286.79L3149.3 1131.04C3146.66 1125.13 3137.82 1127.02 3137.82 1133.49V1281.89C3137.82 1288.52 3132.45 1293.89 3125.82 1293.89H3104.68C3098.05 1293.89 3092.68 1288.52 3092.68 1281.89V1030.67C3092.68 1024.04 3098.05 1018.67 3104.68 1018.67H3133.61C3138.34 1018.67 3142.63 1021.45 3144.56 1025.76L3232.52 1222.23C3234.64 1226.97 3241.37 1226.96 3243.48 1222.22L3331.07 1025.78C3333 1021.45 3337.29 1018.67 3342.03 1018.67H3370.55Z" fill="white"/>
<path d="M3499.03 1055.1C3492.4 1055.1 3487.03 1060.47 3487.03 1067.1V1123.88C3487.03 1130.51 3492.4 1135.88 3499.03 1135.88H3570.07C3576.7 1135.88 3582.07 1141.26 3582.07 1147.88V1160.71C3582.07 1167.34 3576.7 1172.71 3570.07 1172.71H3499.03C3492.4 1172.71 3487.03 1178.08 3487.03 1184.71V1245.06C3487.03 1251.69 3492.4 1257.06 3499.03 1257.06H3581.95C3588.58 1257.06 3593.95 1262.43 3593.95 1269.06V1281.89C3593.95 1288.52 3588.58 1293.89 3581.95 1293.89H3453.89C3447.26 1293.89 3441.89 1288.52 3441.89 1281.89V1030.27C3441.89 1023.64 3447.26 1018.27 3453.89 1018.27H3581.95C3588.58 1018.27 3593.95 1023.64 3593.95 1030.27V1043.1C3593.95 1049.73 3588.58 1055.1 3581.95 1055.1H3499.03ZM3556.73 952.202C3556.73 956.771 3554.13 960.944 3550.03 962.965L3486.52 994.291C3478.54 998.225 3469.21 992.421 3469.21 983.529V976.647C3469.21 972.277 3471.58 968.253 3475.41 966.141L3538.93 931.078C3546.92 926.663 3556.73 932.448 3556.73 941.583V952.202Z" fill="white"/>
<path d="M3799.45 1293.89C3795.16 1293.89 3791.19 1291.59 3789.05 1287.87L3732.61 1189.81C3730.47 1186.09 3726.5 1183.8 3722.21 1183.8H3706.7C3700.07 1183.8 3694.7 1189.17 3694.7 1195.8V1281.89C3694.7 1288.52 3689.32 1293.89 3682.7 1293.89H3661.55C3654.93 1293.89 3649.55 1288.52 3649.55 1281.89V1030.67C3649.55 1024.04 3654.93 1018.67 3661.55 1018.67H3744.59C3765.71 1018.67 3783.53 1022.36 3798.05 1029.76C3812.84 1037.15 3823.79 1047.05 3830.92 1059.46C3838.31 1071.86 3842.01 1085.72 3842.01 1101.04C3842.01 1118.99 3836.73 1135.36 3826.17 1150.14C3818.5 1160.95 3807.69 1169.2 3793.73 1174.89C3786.25 1177.94 3782.45 1186.86 3786.59 1193.8L3835.52 1275.74C3840.3 1283.73 3834.54 1293.89 3825.22 1293.89H3799.45ZM3694.7 1135.76C3694.7 1142.39 3700.07 1147.76 3706.7 1147.76H3744.59C3761.49 1147.76 3774.16 1143.54 3782.61 1135.09C3791.32 1126.64 3795.68 1115.29 3795.68 1101.04C3795.68 1086.78 3791.45 1075.69 3783.01 1067.77C3774.56 1059.59 3761.75 1055.5 3744.59 1055.5H3706.7C3700.07 1055.5 3694.7 1060.87 3694.7 1067.5V1135.76Z" fill="white"/>
<path d="M3884.71 1155.68C3884.71 1128.76 3890.92 1104.6 3903.32 1083.22C3916 1061.83 3933.02 1045.2 3954.41 1033.32C3976.06 1021.18 3999.68 1015.1 4025.29 1015.1C4054.6 1015.1 4080.6 1022.36 4103.3 1036.88C4121.42 1048.13 4135.59 1063.15 4145.82 1081.94C4149.86 1089.36 4144.09 1097.87 4135.64 1097.87H4106.43C4101.85 1097.87 4097.73 1095.22 4095.38 1091.3C4088.64 1080.04 4079.93 1071.4 4069.25 1065.4C4056.58 1058.27 4041.92 1054.7 4025.29 1054.7C4007.08 1054.7 3990.84 1058.8 3976.58 1066.98C3962.33 1075.16 3951.11 1086.91 3942.92 1102.22C3935 1117.54 3931.04 1135.36 3931.04 1155.68C3931.04 1176.01 3935 1193.83 3942.92 1209.14C3951.11 1224.46 3962.33 1236.34 3976.58 1244.78C3990.84 1252.97 4007.08 1257.06 4025.29 1257.06C4041.92 1257.06 4056.58 1253.5 4069.25 1246.37C4079.93 1240.36 4088.64 1231.73 4095.38 1220.47C4097.73 1216.54 4101.85 1213.9 4106.43 1213.9H4135.64C4144.09 1213.9 4149.86 1222.4 4145.82 1229.82C4135.59 1248.62 4121.42 1263.64 4103.3 1274.88C4080.6 1289.14 4054.6 1296.26 4025.29 1296.26C3999.42 1296.26 3975.79 1290.32 3954.41 1278.44C3933.02 1266.3 3916 1249.54 3903.32 1228.15C3890.92 1206.77 3884.71 1182.61 3884.71 1155.68Z" fill="white"/>
<path d="M4239.19 1018.67C4245.81 1018.67 4251.19 1024.04 4251.19 1030.67V1281.89C4251.19 1288.52 4245.81 1293.89 4239.19 1293.89H4218.04C4211.41 1293.89 4206.04 1288.52 4206.04 1281.89V1030.67C4206.04 1024.04 4211.41 1018.67 4218.04 1018.67H4239.19Z" fill="white"/>
<path d="M4435.99 1296.66C4410.38 1296.66 4386.75 1290.72 4365.1 1278.84C4343.72 1266.7 4326.69 1249.93 4314.02 1228.55C4301.61 1206.9 4295.41 1182.61 4295.41 1155.68C4295.41 1128.76 4301.61 1104.6 4314.02 1083.22C4326.69 1061.83 4343.72 1045.2 4365.1 1033.32C4386.75 1021.18 4410.38 1015.1 4435.99 1015.1C4461.86 1015.1 4485.49 1021.18 4506.87 1033.32C4528.52 1045.2 4545.55 1061.83 4557.96 1083.22C4570.36 1104.6 4576.57 1128.76 4576.57 1155.68C4576.57 1182.61 4570.36 1206.9 4557.96 1228.55C4545.55 1249.93 4528.52 1266.7 4506.87 1278.84C4485.49 1290.72 4461.86 1296.66 4435.99 1296.66ZM4435.99 1257.46C4454.2 1257.46 4470.44 1253.36 4484.7 1245.18C4498.95 1236.73 4510.04 1224.85 4517.96 1209.54C4526.14 1193.96 4530.24 1176.01 4530.24 1155.68C4530.24 1135.36 4526.14 1117.54 4517.96 1102.22C4510.04 1086.91 4498.95 1075.16 4484.7 1066.98C4470.44 1058.8 4454.2 1054.7 4435.99 1054.7C4417.77 1054.7 4401.54 1058.8 4387.28 1066.98C4373.02 1075.16 4361.8 1086.91 4353.62 1102.22C4345.7 1117.54 4341.74 1135.36 4341.74 1155.68C4341.74 1176.01 4345.7 1193.96 4353.62 1209.54C4361.8 1224.85 4373.02 1236.73 4387.28 1245.18C4401.54 1253.36 4417.77 1257.46 4435.99 1257.46Z" fill="white"/>
<path d="M990.239 759C990.239 1007.48 898.968 1234.65 748.121 1408.8C495.119 1408.8 795.031 1408.8 495.119 1408.8C179.555 1390.14 179.555 1408.8 179.555 780.764C179.554 236.679 182.276 212.58 497.842 109.203C712.756 109.203 495.121 109.202 748.121 109.203C898.968 283.353 990.239 510.517 990.239 759Z" fill="white"/>
<path fill-rule="evenodd" clip-rule="evenodd" d="M351.272 0C336.842 0 323.002 5.73177 312.799 15.936L15.936 312.799C5.73177 323.002 0 336.842 0 351.272V1463.59C0 1493.64 24.3603 1518 54.4086 1518H435.269H1284.81C1299.24 1518 1313.08 1512.27 1323.28 1502.06L1502.06 1323.28C1512.27 1313.08 1518 1299.24 1518 1284.81V212.194V54.4086C1518 24.359 1493.64 0 1463.59 0H435.269H351.272ZM1305.81 266.602C1305.81 236.553 1281.45 212.194 1251.4 212.194H489.678C459.629 212.194 435.269 236.553 435.269 266.602V1251.4C435.269 1281.45 459.629 1305.81 489.678 1305.81H1251.4C1281.45 1305.81 1305.81 1281.45 1305.81 1251.4V266.602Z" fill="url(#paint0_linear_1_61)"/>
<defs>
<linearGradient id="paint0_linear_1_61" x1="1493.52" y1="-27.2043" x2="0.000249913" y2="1518" gradientUnits="userSpaceOnUse">
<stop stop-color="#017AFF"/>
<stop offset="1" stop-color="#01C2FF"/>
</linearGradient>
</defs>
</svg>
