<svg width="44" height="44" viewBox="0 0 44 44" fill="none" xmlns="http://www.w3.org/2000/svg">
<rect width="44" height="44" rx="22" fill="#1F1F21"/>
<path d="M25.6989 21.5C25.6989 24.9375 24.4363 28.0801 22.3495 30.4893C18.8494 30.4893 22.9984 30.4893 18.8494 30.4893C14.4839 30.2312 14.4839 30.4893 14.4839 21.8011C14.4839 14.2742 14.5216 13.9408 18.8871 12.5107C21.8602 12.5107 18.8495 12.5107 22.3495 12.5107C24.4363 14.9199 25.6989 18.0625 25.6989 21.5Z" fill="white"/>
<path fill-rule="evenodd" clip-rule="evenodd" d="M16.8595 11C16.6599 11 16.4684 11.0793 16.3273 11.2205L12.2205 15.3273C12.0793 15.4684 12 15.6599 12 15.8595V31.2473C12 31.663 12.337 32 12.7527 32H18.0215H29.774C29.9736 32 30.1651 31.9207 30.3063 31.7795L32.7795 29.3063C32.9207 29.1651 33 28.9736 33 28.774V13.9355V11.7527C33 11.337 32.663 11 32.2473 11H18.0215H16.8595ZM30.0645 14.6882C30.0645 14.2725 29.7275 13.9355 29.3118 13.9355H18.7742C18.3585 13.9355 18.0215 14.2725 18.0215 14.6882V28.3118C18.0215 28.7275 18.3585 29.0645 18.7742 29.0645H29.3118C29.7275 29.0645 30.0645 28.7275 30.0645 28.3118V14.6882Z" fill="url(#paint0_linear_235_33)"/>
<defs>
<linearGradient id="paint0_linear_235_33" x1="32.6613" y1="10.6237" x2="12" y2="32" gradientUnits="userSpaceOnUse">
<stop stop-color="#017AFF"/>
<stop offset="1" stop-color="#01C2FF"/>
</linearGradient>
</defs>
</svg>
